<svg xmlns="http://www.w3.org/2000/svg" xmlns:xlink="http://www.w3.org/1999/xlink" viewBox="0 0 1360.09 62"><defs><style>.cls-1{opacity:0.7;}.cls-2,.cls-4{fill:none;stroke-miterlimit:10;stroke-width:2px;}.cls-2{stroke:url(#radial-gradient);}.cls-3{opacity:0.2;}.cls-4{stroke:url(#radial-gradient-2);}</style><radialGradient id="radial-gradient" cx="-2011.01" cy="186.95" r="1" gradientTransform="matrix(-680, 0, 0, 18496, -1366805.55, -3457856.58)" gradientUnits="userSpaceOnUse"><stop offset="0" stop-color="#bd5fff"/><stop offset="1" stop-color="#bd5fff" stop-opacity="0"/></radialGradient><radialGradient id="radial-gradient-2" cx="-2011.01" cy="186.95" r="1" gradientTransform="matrix(-680, 0, 0, 18496, -1366805.55, -3457855.58)" xlink:href="#radial-gradient"/></defs><g id="Layer_2" data-name="Layer 2"><g id="Layer_1-2" data-name="Layer 1"><g class="cls-1"><path class="cls-2" d="M.05,51Q153.68,43.89,307.3,39.89a18.94,18.94,0,0,0,11.2-3.78c11.8-9.33,23.7-18.67,35.5-28a18.82,18.82,0,0,1,11.2-3.7Q522.58,1.08,680.05,1T994.89,4.41a18.59,18.59,0,0,1,11.2,3.7c11.91,9.33,23.71,18.67,35.51,28a19.18,19.18,0,0,0,11.2,3.78Q1206.58,43.77,1360.05,51"/></g><g class="cls-3"><path class="cls-4" d="M.05,61Q153.68,53.89,307.3,49.89a18.94,18.94,0,0,0,11.2-3.78c11.8-9.33,23.7-18.67,35.5-28a18.82,18.82,0,0,1,11.2-3.7Q522.58,11.08,680.05,11t314.84,3.41a18.59,18.59,0,0,1,11.2,3.7c11.91,9.33,23.71,18.67,35.51,28a19.18,19.18,0,0,0,11.2,3.78Q1206.58,53.77,1360.05,61"/></g></g></g></svg>