<svg xmlns="http://www.w3.org/2000/svg" xmlns:xlink="http://www.w3.org/1999/xlink" viewBox="0 0 1360.09 62"><defs><style>.cls-1{opacity:0.7;}.cls-2,.cls-3,.cls-5{fill:none;stroke-miterlimit:10;}.cls-2,.cls-5{stroke-width:2px;}.cls-2{stroke:url(#radial-gradient);}.cls-3{stroke:#bd5fff;stroke-linecap:round;stroke-width:4px;}.cls-4{opacity:0.2;}.cls-5{stroke:url(#radial-gradient-2);}</style><radialGradient id="radial-gradient" cx="-2011.01" cy="929.99" r="1" gradientTransform="matrix(680, 0, 0, -18496, 1368165.12, 17201169.14)" gradientUnits="userSpaceOnUse"><stop offset="0" stop-color="#bd5fff"/><stop offset="1" stop-color="#bd5fff" stop-opacity="0"/></radialGradient><radialGradient id="radial-gradient-2" cx="-2011.01" cy="929.99" r="1" gradientTransform="matrix(680, 0, 0, -18496, 1368165.12, 17201168.14)" xlink:href="#radial-gradient"/></defs><g id="Layer_2" data-name="Layer 2"><g id="Layer_1-2" data-name="Layer 1"><g class="cls-1"><path class="cls-2" d="M1360.05,11q-153.63,7.11-307.25,11.11a18.87,18.87,0,0,0-11.2,3.78c-11.8,9.33-23.7,18.66-35.5,28a18.89,18.89,0,0,1-11.2,3.7Q837.52,60.92,680.05,61T365.2,57.59a18.66,18.66,0,0,1-11.2-3.7c-11.9-9.34-23.7-18.67-35.51-28a19.18,19.18,0,0,0-11.2-3.78Q153.52,18.23.05,11"/></g><path class="cls-3" d="M629.05,36h102"/><g class="cls-4"><path class="cls-5" d="M1360.05,1Q1206.42,8.11,1052.8,12.11a18.87,18.87,0,0,0-11.2,3.78c-11.8,9.33-23.7,18.66-35.5,28a18.89,18.89,0,0,1-11.2,3.7Q837.52,50.92,680.05,51T365.2,47.59a18.66,18.66,0,0,1-11.2-3.7c-11.9-9.34-23.7-18.67-35.51-28a19.18,19.18,0,0,0-11.2-3.78Q153.52,8.23.05,1"/></g></g></g></svg>