<svg width="46" height="46" viewBox="0 0 46 46" fill="none" xmlns="http://www.w3.org/2000/svg">
<path d="M43.0346 13.7245C42.7298 13.2391 42.425 12.7538 42.0924 12.2954C47.025 22.3259 43.2563 34.5134 33.1972 40.1758C23.1382 45.8382 10.3912 42.8991 3.93459 33.7315C4.18399 34.2438 4.4611 34.7561 4.73821 35.2415C10.8346 45.5416 24.3852 49.0738 34.943 43.1149C45.5009 37.1828 49.131 24.0246 43.0346 13.7245ZM12.8298 5.85108C22.8888 0.188711 35.6358 3.12775 42.0924 12.2954C41.843 11.7831 41.5659 11.2708 41.2888 10.7854C35.1924 0.48531 21.6418 -3.04693 11.084 2.91204C0.498449 8.84404 -3.13167 22.0293 2.99243 32.3024C3.29725 32.7878 3.60206 33.2731 3.93459 33.7315C-0.997935 23.701 2.74303 11.4865 12.8298 5.85108Z" fill="white"/>
</svg>
