<svg height="512pt" viewBox="0 0 512 512" width="512pt" fill="url(#logo-gradient)"
  xmlns="http://www.w3.org/2000/svg">
  <defs>
    <linearGradient id="logo-gradient" x1="0%" y1="0%" x2="100%" y2="-50%">
      <stop offset="0%">
        <animate attributeName="stop-color" values="#706393; #587AE2; #7AC3F4; #9E87C9; #AB6CBA; #706393;" dur="3s" repeatCount="indefinite"></animate>
      </stop>
      <stop offset="25%">
        <animate attributeName="stop-color" values="#587AE2; #7AC3F4; #9E87C9; #AB6CBA; #706393; #587AE2;" dur="3s" repeatCount="indefinite"></animate>
      </stop>
      <stop offset="50%">
        <animate attributeName="stop-color" values="#7AC3F4; #9E87C9; #AB6CBA; #706393; #587AE2; #7AC3F4;" dur="3s" repeatCount="indefinite"></animate>
      </stop>
      <stop offset="75%">
        <animate attributeName="stop-color" values="#9E87C9; #AB6CBA; #706393; #587AE2; #7AC3F4; #9E87C9;" dur="3s" repeatCount="indefinite"></animate>
      </stop>
      <stop offset="100%">
        <animate attributeName="stop-color" values="#AB6CBA; #706393; #587AE2; #7AC3F4; #9E87C9; #AB6CBA;" dur="3s" repeatCount="indefinite"></animate>
      </stop>
    </linearGradient>
  </defs>
  <path d="m256 512c-66.96875 0-130.082031-10.664062-177.714844-30.023438-50.480468-20.523437-78.285156-48.925781-78.285156-79.976562 0-20.769531 12.609375-40.71875 36.464844-57.6875 4.5-3.203125 10.742187-2.152344 13.945312 2.351562 3.199219 4.5 2.148438 10.742188-2.351562 13.945313-12.800782 9.105469-28.058594 23.675781-28.058594 41.390625 0 22.046875 23.988281 44.445312 65.816406 61.445312 45.296875 18.414063 105.734375 28.554688 170.183594 28.554688s124.886719-10.140625 170.183594-28.554688c41.828125-17 65.816406-39.398437 65.816406-61.445312s-23.988281-44.445312-65.816406-61.445312c-45.296875-18.414063-105.734375-28.554688-170.183594-28.554688-51.597656 0-100.746094 6.496094-142.128906 18.789062-5.300782 1.574219-10.863282-1.445312-12.433594-6.738281-1.574219-5.292969 1.441406-10.863281 6.738281-12.433593 43.207031-12.835938 94.324219-19.617188 147.824219-19.617188 66.96875 0 130.082031 10.664062 177.714844 30.023438 50.480468 20.523437 78.285156 48.925781 78.285156 79.976562s-27.804688 59.453125-78.285156 79.976562c-47.632813 19.359376-110.746094 30.023438-177.714844 30.023438zm0 0"/>
  <path d="m73.679688 344.867188c-3.828126 0-7.480469-2.207032-9.140626-5.929688-2.246093-5.042969.019532-10.957031 5.0625-13.203125l.570313-.253906c5.042969-2.25 10.953125.015625 13.203125 5.058593 2.25 5.046876-.015625 10.957032-5.0625 13.207032l-.566406.253906c-1.324219.589844-2.707032.867188-4.066406.867188zm0 0"/>
  <path d="m256 453.171875c-37.535156 0-72.972656-5.195313-99.773438-14.625-38.542968-13.5625-46.632812-31.074219-46.632812-43.375s8.089844-29.8125 46.632812-43.375c26.804688-9.429687 62.238282-14.625 99.773438-14.625s72.972656 5.195313 99.773438 14.625c38.542968 13.5625 46.632812 31.074219 46.632812 43.375s-8.089844 29.8125-46.632812 43.375c-26.800782 9.429687-62.238282 14.625-99.773438 14.625zm0-96c-77.164062 0-126.40625 22.507813-126.40625 38s49.242188 38 126.40625 38 126.40625-22.507813 126.40625-38-49.242188-38-126.40625-38zm0 0"/>
  <path d="m256 420.730469c-24.785156 0-51.460938-8.136719-51.460938-26s26.675782-26 51.460938-26 51.460938 8.136719 51.460938 26-26.675782 26-51.460938 26zm-29.980469-26c4.238281 2.621093 14.734375 6 29.980469 6s25.738281-3.378907 29.980469-6c-4.238281-2.621094-14.734375-6-29.980469-6s-25.738281 3.382812-29.980469 6zm0 0"/>
  <path d="m256 266.183594c-25.648438 0-49.761719-9.988282-67.898438-28.125-15.394531-15.394532-25.179687-35.792969-27.554687-57.433594-2.371094-21.640625 2.761719-43.675781 14.457031-62.039062l72.558594-113.957032c1.835938-2.882812 5.019531-4.628906 8.4375-4.628906s6.601562 1.746094 8.4375 4.628906l72.5625 113.957032c11.691406 18.363281 16.824219 40.398437 14.453125 62.039062-2.375 21.640625-12.15625 42.039062-27.554687 57.433594-18.136719 18.136718-42.25 28.125-67.898438 28.125zm0-237.566406-64.128906 100.710937c-19.289063 30.292969-15.023438 69.191406 10.371094 94.589844 29.640624 29.640625 77.875 29.640625 107.515624 0 25.394532-25.398438 29.660157-64.296875 10.371094-94.589844zm0 0"/>
  <path d="m296.984375 178.078125c-4.34375 0-8.339844-2.851563-9.601563-7.230469-1.625-5.28125 1.335938-10.875 6.613282-12.5s10.875 1.335938 12.5 6.617188l.105468.34375c1.527344 5.304687-1.535156 10.847656-6.84375 12.375-.921874.269531-1.855468.394531-2.773437.394531zm0 0"/>
  <path d="m256 225.855469c-14.269531 0-28.535156-5.433594-39.398438-16.292969-3.90625-3.90625-3.90625-10.238281 0-14.144531s10.234376-3.90625 14.140626 0c13.929687 13.925781 36.589843 13.925781 50.515624 0 3.90625-3.90625 10.234376-3.90625 14.144532 0 3.902344 3.90625 3.902344 10.238281 0 14.144531-10.867188 10.859375-25.132813 16.292969-39.402344 16.292969zm0 0"/>
</svg>