<svg height="512" viewBox="0 0 54 60" width="512" fill="url(#logo-gradient)"
  xmlns="http://www.w3.org/2000/svg">
  <defs>
    <linearGradient id="logo-gradient" x1="0%" y1="0%" x2="100%" y2="-50%">
      <stop offset="0%">
        <animate attributeName="stop-color" values="#706393; #587AE2; #7AC3F4; #9E87C9; #AB6CBA; #706393;" dur="3s" repeatCount="indefinite"></animate>
      </stop>
      <stop offset="25%">
        <animate attributeName="stop-color" values="#587AE2; #7AC3F4; #9E87C9; #AB6CBA; #706393; #587AE2;" dur="3s" repeatCount="indefinite"></animate>
      </stop>
      <stop offset="50%">
        <animate attributeName="stop-color" values="#7AC3F4; #9E87C9; #AB6CBA; #706393; #587AE2; #7AC3F4;" dur="3s" repeatCount="indefinite"></animate>
      </stop>
      <stop offset="75%">
        <animate attributeName="stop-color" values="#9E87C9; #AB6CBA; #706393; #587AE2; #7AC3F4; #9E87C9;" dur="3s" repeatCount="indefinite"></animate>
      </stop>
      <stop offset="100%">
        <animate attributeName="stop-color" values="#AB6CBA; #706393; #587AE2; #7AC3F4; #9E87C9; #AB6CBA;" dur="3s" repeatCount="indefinite"></animate>
      </stop>
    </linearGradient>
  </defs>
  <g id="087---Baseball">
    <path id="Shape" d="m30 0h-26c-2.209139 0-4 1.790861-4 4v42c0 2.209139 1.790861 4 4 4h16v6c0 2.209139 1.790861 4 4 4h26c2.209139 0 4-1.790861 4-4v-42c0-2.209139-1.790861-4-4-4h-16v-6c0-2.209139-1.790861-4-4-4zm-26 48c-1.1045695 0-2-.8954305-2-2v-42c0-1.1045695.8954305-2 2-2h26c1.1045695 0 2 .8954305 2 2v6h-8c-1.6007831.0008621-3.0468924.9560181-3.676 2.428-3.1134377-.8215355-6.4212048-.4547188-9.279 1.029-.0175225.0027075-.0348822.0063797-.052.011-.0259917.0154938-.0510362.032524-.075.051-4.25187936 2.2520449-6.91098832 6.6695361-6.91098832 11.481s2.65910896 9.2289551 6.91098832 11.481c.0239638.018476.0490083.0355062.075.051.0171178.0046203.0344775.0082925.052.011 2.7541963 1.4363203 5.9355441 1.8260398 8.955 1.097v10.36zm6.876-32.132c.155.417.295.83.424 1.241l-.984.267c-.34847294.0903418-.6214933.3610145-.71484121.7086942-.09334792.3476797.00738526.7187008.26374672.9714335.25636149.2527328.62878069.3481669.97509449.2498723l.975-.265c.2014781.8703192.3576878 1.7505012.468 2.637l-1 .089c-.3600064.0261941-.6779566.2443673-.8319114.5708465-.1539547.3264792-.1200174.7105887.0887966 1.0050161s.5600927.453472.9191148.4161374l1-.089c.0470008.8860438.0470008 1.7739562 0 2.66l-1-.089c-.5484557-.0434881-1.0306492.3604157-1.084.908-.0485326.5500541.3579576 1.0353354.908 1.084l1 .089c-.1106591.8864465-.2668657 1.7666106-.468 2.637l-.975-.265c-.3463138-.0982946-.718733-.0028605-.97509449.2498723-.25636146.2527327-.35709464.6237538-.26374672.9714335.09334791.3476797.36636827.6183524.71484121.7086942l.985.268c-.13.41-.27.822-.425 1.24-3.04551365-2.040966-4.87314502-5.4658445-4.87314502-9.132s1.82763137-7.091034 4.87314502-9.132zm2.355 17.548c.4251076.1600186.8679779.2681341 1.319.322.5009181-.0006247.9240919-.3717738.9900468-.8683312.065955-.4965574-.2456601-.9653044-.7290468-1.0966688l-1.066-.289c.2310881-.9846163.4083509-1.9810936.531-2.985 1.117.1 1.114.1 1.192.1.5522847.0240244 1.0194756-.4042153 1.0435-.9565s-.4042153-1.0194756-.9565-1.0435l-1.079-.095c.0549992-1.0052483.0549992-2.0127517 0-3.018l1.079-.095c.5503517-.0486011.957101-.5341483.9085-1.0845-.0486011-.5503517-.5341483-.957101-1.0845-.9085l-1.1.1c-.122456-1.0038673-.2993836-2.000337-.53-2.985l1.066-.289c.5270036-.1495799.8355558-.6953371.6920176-1.2240182-.1435383-.5286811-.6857283-.8434597-1.2160176-.7059818l-1.056.287c-.174-.556-.368-1.115-.585-1.681 2.3209304-1.0043462 4.9179718-1.1743022 7.35-.481v21.156c-2.4324835.6993084-5.0325094.5303102-7.354-.478.2166667-.566.4116667-1.1263333.585-1.681zm38.769-19.416v42c0 1.1045695-.8954305 2-2 2h-26c-1.1045695 0-2-.8954305-2-2v-42c0-1.1045695.8954305-2 2-2h26c1.1045695 0 2 .8954305 2 2z"/>
    <path id="Shape" d="m29.275 23.07c-.0811491.2979556-.069991.6135201.032.905-.8966758 2.93568.2315454 6.1124815 2.779 7.825-3.6869119 1.5724765-6.0811474 5.1917612-6.086 9.2v5c0 1.6568542 1.3431458 3 3 3h.8c-.045228 1.282378.7080625 2.4588519 1.8916884 2.9544007 1.1836259.4955489 2.550409.2066866 3.4323116-.7254007l2.154-2.329c1.047352-.2236238 1.9281253-.9276496 2.377-1.9h3.345c1.6568542 0 3-1.3431458 3-3 .0756993-1.4575573.0405984-2.9187588-.105-4.371l3.082-3.321c.9499241-.9903609 1.2806279-2.4216918.8614295-3.7283834-.4191983-1.3066917-1.5208536-2.278509-2.8696321-2.5314256-1.3487786-.2529165-2.7276739.2537597-3.5917974 1.319809l-1.351 1.657c-.6524256-.4935674-1.3630973-.9049913-2.116-1.225 2.2309682-1.4957033 3.399286-4.1438904 3-6.8h2.09c.5522847 0 1-.4477153 1-1s-.4477153-1-1-1h-2.3c-.8846953-2.9795083-3.6302234-5.0171674-6.7382602-5.0009604s-5.8321653 2.0823879-6.6857398 5.0709604zm2.534 25.93h2.655l-.8.861c-.3198377.3332012-.8160366.4263935-1.2349737.2319434-.4189372-.19445-.6680569-.6335827-.6200263-1.0929434zm12.191-5c0 .5522847-.4477153 1-1 1h-2.087l3.087-3.329zm.921-11.364c.4028872-.4932501 1.0434047-.7264619 1.6691163-.6077237.6257115.1187381 1.1362671.5703835 1.3304501 1.1769366s.0408507 1.2707366-.3995664 1.7307871l-8.068 8.7c-.5021511-.7981226-1.3051013-1.3598632-2.227-1.558zm-10.215 9.364h-2.706c-.5522847 0-1 .4477153-1 1s.4477153 1 1 1h4.5c.6044953.0056438 1.1471146.3719686 1.3783379.9305222.2312233.5585537.1062948 1.2012219-.3173379 1.6324778-.2470762.2410338-.5671164.3933167-.91.433-.1.011-.768 0-7.651 0-.5522847 0-1-.4477153-1-1v-4.996c.0034044-3.0188968 1.7059476-5.778786 4.4023599-7.136398 2.6964122-1.357612 5.9274374-1.0817166 8.3546401.713398zm1.294-11c-1.5009773.0006868-2.9225311-.6743087-3.8706709-1.8379084-.9481398-1.1635996-1.3221343-2.6921815-1.0183291-4.1620916h9.775c.305252 1.4696031-.067784 2.9985251-1.0155695 4.1624042-.9477856 1.1638791-2.3694607 1.8388594-3.8704305 1.8375958zm4.583-8h-9.163c.795833-1.8208121 2.5943646-2.9975371 4.5815-2.9975371s3.785667 1.176725 4.5815 2.9975371z"/>
    <path id="Shape" d="m46.5 47c-1.9329966 0-3.5 1.5670034-3.5 3.5s1.5670034 3.5 3.5 3.5 3.5-1.5670034 3.5-3.5-1.5670034-3.5-3.5-3.5zm0 5c-.8284271 0-1.5-.6715729-1.5-1.5s.6715729-1.5 1.5-1.5 1.5.6715729 1.5 1.5-.6715729 1.5-1.5 1.5z"/>
    <path id="Shape" d="m25 19c.5522847 0 1-.4477153 1-1v-2h2c.5522847 0 1-.4477153 1-1s-.4477153-1-1-1h-3c-.5522847 0-1 .4477153-1 1v3c0 .5522847.4477153 1 1 1z"/>
    <path id="Shape" d="m28 54h-2v-2c0-.5522847-.4477153-1-1-1s-1 .4477153-1 1v3c0 .5522847.4477153 1 1 1h3c.5522847 0 1-.4477153 1-1s-.4477153-1-1-1z"/>
    <path id="Shape" d="m5 9c.55228475 0 1-.44771525 1-1v-2h2c.55228475 0 1-.44771525 1-1s-.44771525-1-1-1h-3c-.55228475 0-1 .44771525-1 1v3c0 .55228475.44771525 1 1 1z"/>
    <path id="Shape" d="m26 6h2v2c0 .55228475.4477153 1 1 1s1-.44771525 1-1v-3c0-.55228475-.4477153-1-1-1h-3c-.5522847 0-1 .44771525-1 1s.4477153 1 1 1z"/>
    <path id="Shape" d="m8 44h-2v-2c0-.5522847-.44771525-1-1-1s-1 .4477153-1 1v3c0 .5522847.44771525 1 1 1h3c.55228475 0 1-.4477153 1-1s-.44771525-1-1-1z"/>
    <path id="Shape" d="m46 16h2v2c0 .5522847.4477153 1 1 1s1-.4477153 1-1v-3c0-.5522847-.4477153-1-1-1h-3c-.5522847 0-1 .4477153-1 1s.4477153 1 1 1z"/>
  </g>
</svg>