<?xml version="1.0"?>
<svg xmlns="http://www.w3.org/2000/svg" viewBox="0 0 512 512" width="512" height="512" fill="#fFf">
  <g id="Outline">
    <path d="M248,208v16h-8a28,28,0,0,0,0,56h32a12,12,0,0,1,0,24H220v16h28v16h16V320h8a28,28,0,0,0,0-56H240a12,12,0,0,1,0-24h52V224H264V208Z"/>
    <path d="M456,368H384l-8-10.667V257.58a107.486,107.486,0,0,0-78.024-103.374L311.692,106.2A8,8,0,0,0,304,96H256v16H293.4l-11.429,40H256v16h31.191A91.521,91.521,0,0,1,360,257.58V360a7.987,7.987,0,0,0,.821,3.5A117.143,117.143,0,0,0,251.129,368H192a32.041,32.041,0,0,0-30.9,40.379l-31.849-14.59A16,16,0,0,1,131.2,390.4l19.2-25.6A8,8,0,0,0,152,360V272H136v85.333L118.4,380.8a32,32,0,0,0-3.684,6.328L88.364,375.058A34.132,34.132,0,0,0,44.1,389.891,37.069,37.069,0,0,0,40,407.84a33.973,33.973,0,0,0,18.872,30.545l93.283,46.641A104.565,104.565,0,0,0,198.66,496H456a8,8,0,0,0,8-8V376A8,8,0,0,0,456,368ZM360,480H198.66a88.5,88.5,0,0,1-39.351-9.285L66.031,424.076A18.059,18.059,0,0,1,56,407.84a22.069,22.069,0,0,1,2.187-10.363A18.086,18.086,0,0,1,81.7,389.6l90.971,41.67A8,8,0,0,0,176,432h88V416H192a16,16,0,0,1,0-32h61.33a8,8,0,0,0,4.117-1.141l.75-.45a101.177,101.177,0,0,1,97.272-3.735L360,380.942Zm88,0H376V384h72Z"/>
    <circle cx="408" cy="448" r="16"/>
    <path d="M72.185,234.7a8,8,0,0,0,10.243,5.914l27.922-8.892,19.736,21.662a8,8,0,0,0,11.828,0l19.736-21.662,27.922,8.892a8,8,0,0,0,10.243-5.914l6.261-28.627,28.628-6.262a8,8,0,0,0,5.914-10.243l-8.892-27.922,21.662-19.736a8,8,0,0,0,0-11.828L231.726,110.35l8.892-27.922A8,8,0,0,0,234.7,72.185l-28.628-6.262L199.815,37.3a8,8,0,0,0-10.243-5.914L161.65,40.274,141.914,18.612a8,8,0,0,0-11.828,0L110.35,40.274,82.428,31.382A8,8,0,0,0,72.185,37.3L65.924,65.923,37.3,72.185a8,8,0,0,0-5.914,10.243l8.892,27.922L18.612,130.086a8,8,0,0,0,0,11.828L40.274,161.65l-8.892,27.922A8,8,0,0,0,37.3,199.815l28.628,6.262ZM54.841,153.277,35.879,136l18.962-17.277a8,8,0,0,0,2.235-8.341L49.292,85.939l25.061-5.481a8,8,0,0,0,6.106-6.106l5.48-25.06,24.443,7.784a8.005,8.005,0,0,0,8.342-2.235L136,35.878l17.276,18.963a8,8,0,0,0,8.342,2.235l24.443-7.784,5.48,25.06a8,8,0,0,0,6.106,6.106l25.061,5.481-7.784,24.443a8,8,0,0,0,2.235,8.341L236.121,136l-18.962,17.277a8,8,0,0,0-2.235,8.341l7.784,24.443-25.061,5.481a8,8,0,0,0-6.106,6.106l-5.48,25.06-24.443-7.784a8,8,0,0,0-8.342,2.235L136,236.122l-17.276-18.963a8,8,0,0,0-8.342-2.235l-24.443,7.784-5.48-25.06a8,8,0,0,0-6.106-6.106l-25.061-5.481,7.784-24.443A8,8,0,0,0,54.841,153.277Z"/>
    <rect x="79.431" y="128" width="113.137" height="16" transform="translate(-56.333 136) rotate(-45)"/>
    <path d="M104,128a24,24,0,1,0-24-24A24.027,24.027,0,0,0,104,128Zm0-32a8,8,0,1,1-8,8A8.009,8.009,0,0,1,104,96Z"/>
    <path d="M152,160a24,24,0,1,0,24-24A24.027,24.027,0,0,0,152,160Zm32,0a8,8,0,1,1-8-8A8.009,8.009,0,0,1,184,160Z"/>
  </g>
</svg>
