<svg height="512" viewBox="0 0 60 58" width="512" fill="#fff"
  xmlns="http://www.w3.org/2000/svg">
  <g id="Page-1" fill="none" fill-rule="evenodd">
    <g id="018---Painting-Auction" fill="#fff" fill-rule="nonzero">
      <path id="Shape" d="m59 2h-15v-1c0-.55228475-.4477153-1-1-1s-1 .44771525-1 1v1h-41c-.55228475 0-1 .44771525-1 1v50c0 .5522847.44771525 1 1 1h34v2c0 1.1045695.8954305 2 2 2h12c1.1045695 0 2-.8954305 2-2v-2h8c.5522847 0 1-.4477153 1-1v-50c0-.55228475-.4477153-1-1-1zm-4 45.586v-39.172l3-3v45.172zm-15.686-27.131c-.780953-.6388867-1.9154965-.5960091-2.646.1l-11.458 11-6.878-6.055c-.7648143-.6810248-1.9234182-.6640887-2.668.039l-8.664 8.097v-24.636h35v13.682zm1.677 3.989c-.9531603.3717898-1.9679054.5604218-2.991.556-.8979774.0015706-1.7903664-.1412522-2.643-.423l2.684-2.577zm-21.327 4.892c-1.6237527.8668895-3.5685852.8859309-5.209.051l2.554-2.387zm-14.664-20.922v39.172l-3 3v-45.172zm39 .586h9v22.808l-9-7.466zm12.586-5-3 3h-9.586v-3zm-14.586 3h-35.586l-3-3h38.586zm-38.586 45 3-3h28.586v3zm31.586-15v10h-28v-10.627l5.935-5.561c1.2045516.7960969 2.6213158 1.2101475 4.065 1.188 1.5071691.0236328 2.9829728-.431538 4.215-1.3l9.124 8.044c.2664773.2464982.6456084.3292316.9905511.2161563.3449428-.1130752.6015201-.4041993.6703565-.7606163s-.0608797-.7221477-.3389076-.95554l-4.946-4.361 7.067-6.8c1.3198287.6169693 2.7611467.9303142 4.218.917 1.3741623.0112604 2.7358734-.2610818 4-.8v5.8h-2c-2.7600532.0033061-4.9966939 2.2399468-5 5zm2 19v-19c0-1.6568542 1.3431458-3 3-3h2v1c0 .5522847.4477153 1 1 1s1-.4477153 1-1v-1h2c1.6568542 0 3 1.3431458 3 3v19zm9-24h-2v-5.06l9 7.467v12.593h-2v-10c-.0033061-2.7600532-2.2399468-4.9966939-5-5zm5 17h2.586l3 3h-5.586z"/>
      <path id="Shape" d="m43 41h1c.5522847 0 1 .4477153 1 1s.4477153 1 1 1 1-.4477153 1-1c0-1.6568542-1.3431458-3-3-3 0-.5522847-.4477153-1-1-1s-1 .4477153-1 1v.142c-1.9482742.5014457-3.2190002 2.3742805-2.9650329 4.3699561.2539674 1.9956755 1.953264 3.4905487 3.9650329 3.4880439 1.1045695 0 2 .8954305 2 2s-.8954305 2-2 2h-1c-.5522847 0-1-.4477153-1-1s-.4477153-1-1-1-1 .4477153-1 1c0 1.6568542 1.3431458 3 3 3 0 .5522847.4477153 1 1 1s1-.4477153 1-1v-.142c1.9482742-.5014457 3.2190002-2.3742805 2.9650329-4.3699561-.2539674-1.9956755-1.953264-3.4905487-3.9650329-3.4880439-1.1045695 0-2-.8954305-2-2s.8954305-2 2-2z"/>
      <path id="Shape" d="m15 12c-2.209139 0-4 1.790861-4 4s1.790861 4 4 4 4-1.790861 4-4-1.790861-4-4-4zm0 6c-1.1045695 0-2-.8954305-2-2s.8954305-2 2-2 2 .8954305 2 2-.8954305 2-2 2z"/>
    </g>
  </g>
</svg>