<svg id="Capa_1" enable-background="new 0 0 512 512" height="512" viewBox="0 0 512 512" width="512"
  xmlns="http://www.w3.org/2000/svg" fill="#fff">
  <g>
    <path d="m277.26 412.687c5.275 5.268 12.199 7.901 19.124 7.901s13.851-2.635 19.12-7.904l97.18-97.18c10.538-10.538 10.54-27.693 0-38.246l-62.962-62.962 18.482-18.482c2.929-2.929 2.929-7.677 0-10.606s-7.678-2.929-10.606 0l-218.91 218.91c-1.549 1.549-2.343 3.697-2.174 5.88.168 2.184 1.283 4.184 3.051 5.477 33.967 24.837 74.23 37.966 116.437 37.966 108.869 0 197.44-88.571 197.44-197.44 0-42.206-13.128-82.469-37.966-116.437-1.292-1.768-3.293-2.883-5.477-3.051-2.188-.17-4.332.626-5.88 2.175l-25.54 25.54c-2.929 2.929-2.929 7.677 0 10.606s7.678 2.929 10.606 0l19.201-19.201c19.691 29.8 30.056 64.316 30.056 100.368 0 100.598-81.842 182.44-182.44 182.44-36.052 0-70.567-10.365-100.367-30.056l58.662-58.662zm27.637-10.611c-4.693 4.693-12.336 4.692-17.034 0l-19.99-19.99c8.23-6.026 18.12-9.286 28.513-9.286 10.39.001 20.277 3.259 28.505 9.282zm97.18-97.179-19.994 19.994c-6.023-8.228-9.281-18.115-9.281-28.506 0-10.393 3.259-20.283 9.284-28.511l19.987 19.987c4.695 4.7 4.697 12.343.004 17.036zm-30.686-47.72c-8.799 11.133-13.588 24.798-13.588 39.207 0 14.407 4.788 28.07 13.585 39.202l-35.8 35.8c-11.133-8.797-24.795-13.586-39.2-13.586-.001 0-.002 0-.003 0-14.408 0-28.073 4.79-39.207 13.59l-32.276-32.275 15.593-15.593c5.146 1.18 10.347 1.766 15.514 1.766 18.114-.001 35.786-7.109 48.973-20.303 16.963-16.953 23.863-41.306 18.544-64.495l15.589-15.589zm-77.016 37.201c-10.872 10.878-25.629 16.466-40.592 15.855l56.45-56.45c.612 14.964-4.978 29.722-15.858 40.595z"/>
    <path d="m437.019 74.982c-48.353-48.353-112.64-74.982-181.019-74.982s-132.666 26.629-181.019 74.982c-48.352 48.352-74.981 112.639-74.981 181.018 0 28.672 4.704 56.81 13.982 83.632 1.354 3.915 5.626 5.99 9.54 4.636 3.915-1.354 5.99-5.625 4.636-9.54-8.731-25.24-13.158-51.728-13.158-78.728 0-64.372 25.069-124.892 70.588-170.412s106.04-70.588 170.412-70.588 124.892 25.069 170.412 70.588 70.588 106.04 70.588 170.412-25.069 124.892-70.588 170.412-106.04 70.588-170.412 70.588c-46.025 0-90.766-13.017-129.386-37.645-37.608-23.982-67.804-57.802-87.324-97.804-1.817-3.723-6.308-5.268-10.029-3.451-3.723 1.816-5.268 6.307-3.451 10.029 20.732 42.486 52.801 78.405 92.739 103.873 41.034 26.167 88.563 39.998 137.451 39.998 68.379 0 132.666-26.629 181.019-74.982 48.352-48.352 74.981-112.639 74.981-181.018s-26.629-132.666-74.981-181.018z"/>
    <path d="m372.437 96.526c-33.968-24.838-74.231-37.966-116.437-37.966-108.869 0-197.44 88.571-197.44 197.44 0 42.206 13.128 82.469 37.966 116.437 1.292 1.768 3.293 2.883 5.477 3.051.193.015.386.022.578.022 1.981 0 3.891-.785 5.303-2.197l265.43-265.43c1.549-1.549 2.343-3.697 2.174-5.88-.169-2.184-1.283-4.184-3.051-5.477zm-242.521 90.585c12.345 16.919 12.344 40.097-.003 57.014l-19.985-19.985c-4.695-4.701-4.696-12.344-.003-17.037zm10.694-10.695 35.803-35.803c11.133 8.797 24.795 13.585 39.202 13.585 14.409 0 28.074-4.789 39.207-13.588l32.276 32.275-15.589 15.589c-23.19-5.319-47.541 1.581-64.491 18.541-16.963 16.953-23.863 41.306-18.545 64.495l-15.589 15.589-32.278-32.278c18.062-22.913 18.064-55.491.004-78.405zm46.499-46.499 19.994-19.994c4.694-4.693 12.337-4.692 17.034 0l19.99 19.99c-8.229 6.025-18.118 9.284-28.511 9.284-10.392.001-20.279-3.257-28.507-9.28zm30.516 87.705c10.872-10.877 25.628-16.466 40.592-15.855l-56.45 56.45c-.612-14.964 4.978-29.722 15.858-40.595zm80.08-55.344-62.965-62.965c-10.55-10.536-27.705-10.534-38.243.004l-97.18 97.18c-10.538 10.538-10.54 27.693 0 38.246l62.962 62.962-58.663 58.663c-19.691-29.8-30.056-64.316-30.056-100.368 0-100.598 81.842-182.44 182.44-182.44 36.052 0 70.567 10.365 100.367 30.056z"/>
  </g>
</svg>