<?xml version="1.0" encoding="iso-8859-1"?>
<!-- Generator: Adobe Illustrator 19.0.0, SVG Export Plug-In . SVG Version: 6.00 Build 0)  -->
<svg version="1.1" id="Capa_1" fill="url(#logo-gradient)"
	xmlns="http://www.w3.org/2000/svg"
	xmlns:xlink="http://www.w3.org/1999/xlink" x="0px" y="0px" viewBox="0 0 480.008 480.008" style="enable-background:new 0 0 480.008 480.008;" xml:space="preserve">
	<defs>
		<linearGradient id="logo-gradient" x1="0%" y1="0%" x2="100%" y2="-50%">
			<stop offset="0%">
				<animate attributeName="stop-color" values="#706393; #587AE2; #7AC3F4; #9E87C9; #AB6CBA; #706393;" dur="3s" repeatCount="indefinite"></animate>
			</stop>
			<stop offset="25%">
				<animate attributeName="stop-color" values="#587AE2; #7AC3F4; #9E87C9; #AB6CBA; #706393; #587AE2;" dur="3s" repeatCount="indefinite"></animate>
			</stop>
			<stop offset="50%">
				<animate attributeName="stop-color" values="#7AC3F4; #9E87C9; #AB6CBA; #706393; #587AE2; #7AC3F4;" dur="3s" repeatCount="indefinite"></animate>
			</stop>
			<stop offset="75%">
				<animate attributeName="stop-color" values="#9E87C9; #AB6CBA; #706393; #587AE2; #7AC3F4; #9E87C9;" dur="3s" repeatCount="indefinite"></animate>
			</stop>
			<stop offset="100%">
				<animate attributeName="stop-color" values="#AB6CBA; #706393; #587AE2; #7AC3F4; #9E87C9; #AB6CBA;" dur="3s" repeatCount="indefinite"></animate>
			</stop>
		</linearGradient>
	</defs>
	<g>
		<g>
			<path d="M56,400.004c-13.255,0-24,10.745-24,24s10.745,24,24,24s24-10.745,24-24S69.255,400.004,56,400.004z M56,432.004
			c-4.418,0-8-3.582-8-8s3.582-8,8-8s8,3.582,8,8S60.418,432.004,56,432.004z"/>
		</g>
	</g>
	<g>
		<g>
			<path d="M474.498,338.774c-6.984-11.645-19.567-18.77-33.146-18.77h-1.688c-6.342,0.004-12.586,1.564-18.184,4.544L360,357.34
			V248.004h28c24.301,0,44-19.699,44-44s-19.699-44-44-44H216c-22.091,0-40-17.909-40-40s17.909-40,40-40h28l45.6,60.8
			c1.511,2.014,3.882,3.2,6.4,3.2h176c4.418,0,8-3.582,8-8v-128c0-4.418-3.582-8-8-8H296c-2.518,0-4.889,1.186-6.4,3.2l-45.6,60.8
			h-28c-30.928,0-56,25.072-56,56c0,30.928,25.072,56,56,56h172c15.464,0,28,12.536,28,28s-12.536,28-28,28h-28v-32
			c0-4.418-3.582-8-8-8H128c-4.418,0-8,3.582-8,8v120c-6.203,2.166-12.215,4.842-17.976,8H0v16h96v120H0v16h303.136
			c7.252,0,14.367-1.972,20.584-5.704l137.512-82.504C479.537,380.817,485.476,357.079,474.498,338.774z M312.099,94.631
			c12.497-4.418,19.046-18.131,14.627-30.627c-4.418-12.497-18.131-19.046-30.627-14.627c-6.835,2.416-12.211,7.793-14.627,14.627
			H264l36-48h164v112H300l-36-48h17.472C285.89,92.501,299.603,99.05,312.099,94.631z M296,72.004c0-4.418,3.582-8,8-8s8,3.582,8,8
			s-3.582,8-8,8S296,76.422,296,72.004z M224,208.004h32v32h-32V208.004z M136,208.004h72v40c0,4.418,3.582,8,8,8h48
			c4.418,0,8-3.582,8-8v-40h72v157.864l-13.104,6.984c4.887-19.272-6.775-38.857-26.048-43.744
			c-2.892-0.733-5.864-1.104-8.848-1.104h-77.912c-25.053-13.657-54.117-18.053-82.088-12.416V208.004z M453,378.076L315.488,460.58
			c-3.731,2.24-8,3.424-12.352,3.424H112v-123.2c31.576-16.149,69.159-15.329,100,2.184c1.221,0.685,2.6,1.036,4,1.016h80
			c11.046,0,20,8.954,20,20c0,11.046-8.954,20-20,20h-72c-4.418,0-8,3.582-8,8s3.582,8,8,8h88c1.314,0.002,2.608-0.319,3.768-0.936
			l113.24-60.4c3.281-1.746,6.94-2.661,10.656-2.664h1.688c12.508-0.001,22.649,10.138,22.65,22.646
			C464.002,366.609,459.826,373.983,453,378.076z"/>
		</g>
	</g>
	<g>
		<g>
			<path d="M431.917,84.266c-0.623-6.087-4.325-11.429-9.805-14.15l-21.056-10.528c-0.937-0.458-1.325-1.589-0.867-2.525
			c0.312-0.639,0.956-1.048,1.667-1.059H432v-16h-16v-8h-16v8.192c-9.793,1.002-16.919,9.753-15.917,19.546
			c0.623,6.087,4.325,11.429,9.805,14.15l21.056,10.528c0.937,0.458,1.325,1.589,0.867,2.525c-0.312,0.639-0.956,1.048-1.667,1.059
			H384v16h16v8h16v-8.192C425.793,102.81,432.919,94.059,431.917,84.266z"/>
		</g>
	</g>
</svg>
