<svg height='300px' width='300px' fill="url(#logo-gradient)"
  xmlns="http://www.w3.org/2000/svg" viewBox="0 0 512 512" x="0px" y="0px">
  <defs>
    <linearGradient id="logo-gradient" x1="0%" y1="0%" x2="100%" y2="-50%">
      <stop offset="0%">
        <animate attributeName="stop-color" values="#706393; #587AE2; #7AC3F4; #9E87C9; #AB6CBA; #706393;" dur="3s" repeatCount="indefinite"></animate>
      </stop>
      <stop offset="25%">
        <animate attributeName="stop-color" values="#587AE2; #7AC3F4; #9E87C9; #AB6CBA; #706393; #587AE2;" dur="3s" repeatCount="indefinite"></animate>
      </stop>
      <stop offset="50%">
        <animate attributeName="stop-color" values="#7AC3F4; #9E87C9; #AB6CBA; #706393; #587AE2; #7AC3F4;" dur="3s" repeatCount="indefinite"></animate>
      </stop>
      <stop offset="75%">
        <animate attributeName="stop-color" values="#9E87C9; #AB6CBA; #706393; #587AE2; #7AC3F4; #9E87C9;" dur="3s" repeatCount="indefinite"></animate>
      </stop>
      <stop offset="100%">
        <animate attributeName="stop-color" values="#AB6CBA; #706393; #587AE2; #7AC3F4; #9E87C9; #AB6CBA;" dur="3s" repeatCount="indefinite"></animate>
      </stop>
    </linearGradient>
  </defs>
  <path d="M416,112H304V80a7.99789,7.99789,0,0,0-8-8H280V24a7.99789,7.99789,0,0,0-8-8H240a7.99789,7.99789,0,0,0-8,8V72H216a7.99789,7.99789,0,0,0-8,8v32H96a7.99789,7.99789,0,0,0-8,8V368a7.99789,7.99789,0,0,0,8,8h56v24a7.99789,7.99789,0,0,0,8,8h21.52539l-21.24414,77.89453A7.99929,7.99929,0,0,0,168,496h24a7.98849,7.98849,0,0,0,7.28125-4.69141L215.33057,456h81.33886l16.04932,35.30859A7.98849,7.98849,0,0,0,320,496h24a7.99929,7.99929,0,0,0,7.71875-10.10547L330.47461,408H352a7.99789,7.99789,0,0,0,8-8V376h56a7.99789,7.99789,0,0,0,8-8V120A7.99789,7.99789,0,0,0,416,112ZM248,32h16V72H248ZM224,88h64v24H224ZM186.85156,480h-8.375l19.63477-72h21.46728Zm35.752-40,14.54541-32H248v32ZM264,440V408h10.85107l14.54541,32Zm69.52344,40h-8.375l-32.72705-72h21.46728ZM344,392H168V376H344ZM264,184a24.02624,24.02624,0,0,1,24-24v56a24.02624,24.02624,0,0,1-24,24Zm-16,0v.01953a39.8438,39.8438,0,0,0-14.8916-6.84375A23.95308,23.95308,0,0,1,256,160h.20459A39.6101,39.6101,0,0,0,248,184Zm-24,8a24.02624,24.02624,0,0,1,24,24v24a24.02624,24.02624,0,0,1-24-24Zm40,120a24.02624,24.02624,0,0,1,24-24h24v8a24.02624,24.02624,0,0,1-24,24H264Zm-16,0H224a24.02624,24.02624,0,0,1-24-24v-8h24a24.02624,24.02624,0,0,1,24,24Zm160,48H264V336h24a40.04708,40.04708,0,0,0,40-40V280a7.99789,7.99789,0,0,0-8-8H288a39.6101,39.6101,0,0,0-24,8.20459V256a40.04708,40.04708,0,0,0,40-40V160a16.01833,16.01833,0,0,0-16-16H256a39.95446,39.95446,0,0,0-39.38232,33.89014A15.9521,15.9521,0,0,0,208,192v24a40.04708,40.04708,0,0,0,40,40v16.20459A39.6101,39.6101,0,0,0,224,264H192a7.99789,7.99789,0,0,0-8,8v16a40.04708,40.04708,0,0,0,40,40h24v32H104V128H408Z"></path>
</svg>