<svg height='300px' width='300px' fill="url(#logo-gradient)"
  xmlns="http://www.w3.org/2000/svg" data-name="Layer 1" viewBox="0 0 64 64" x="0px" y="0px">
  <title>existing-exist-earth-being-living-remain-save</title>
  <defs>
    <linearGradient id="logo-gradient" x1="0%" y1="0%" x2="100%" y2="-50%">
      <stop offset="0%">
        <animate attributeName="stop-color" values="#706393; #587AE2; #7AC3F4; #9E87C9; #AB6CBA; #706393;" dur="3s" repeatCount="indefinite"></animate>
      </stop>
      <stop offset="25%">
        <animate attributeName="stop-color" values="#587AE2; #7AC3F4; #9E87C9; #AB6CBA; #706393; #587AE2;" dur="3s" repeatCount="indefinite"></animate>
      </stop>
      <stop offset="50%">
        <animate attributeName="stop-color" values="#7AC3F4; #9E87C9; #AB6CBA; #706393; #587AE2; #7AC3F4;" dur="3s" repeatCount="indefinite"></animate>
      </stop>
      <stop offset="75%">
        <animate attributeName="stop-color" values="#9E87C9; #AB6CBA; #706393; #587AE2; #7AC3F4; #9E87C9;" dur="3s" repeatCount="indefinite"></animate>
      </stop>
      <stop offset="100%">
        <animate attributeName="stop-color" values="#AB6CBA; #706393; #587AE2; #7AC3F4; #9E87C9; #AB6CBA;" dur="3s" repeatCount="indefinite"></animate>
      </stop>
    </linearGradient>
  </defs>
  <path d="M17.485,40.535c.016.025.034.048.05.073q.216.337.448.661c.109.153.222.3.335.448.2.258.4.511.614.756.192.222.388.439.591.649.113.117.228.233.344.346.311.3.628.6.96.872l.009.007c.363.3.742.578,1.128.845.061.041.121.083.183.124a15.856,15.856,0,0,0,2.538,1.38l.157.068q.665.277,1.352.5l.167.049q.636.192,1.29.332c.062.014.124.03.186.042.46.093.927.162,1.4.214.1.011.2.02.3.029.484.044.971.074,1.463.074s.979-.03,1.463-.074c.1-.009.2-.018.3-.029.47-.052.937-.121,1.4-.214.062-.012.124-.028.186-.042q.654-.139,1.29-.332l.167-.049q.689-.217,1.352-.5l.157-.068a15.77,15.77,0,0,0,2.538-1.38c.062-.041.122-.083.183-.124.386-.267.765-.544,1.128-.845l.009-.007c.332-.275.649-.569.96-.872.116-.113.231-.229.344-.346.2-.21.4-.427.591-.649.213-.245.416-.5.614-.756.113-.148.226-.3.335-.448q.232-.324.448-.661c.016-.025.034-.048.05-.073s.009-.023.015-.034a15.864,15.864,0,0,0,0-17c-.006-.011-.009-.023-.015-.034s-.034-.048-.05-.073q-.216-.337-.448-.661c-.109-.153-.222-.3-.335-.448-.2-.258-.4-.511-.614-.756-.192-.222-.388-.439-.591-.65-.113-.116-.227-.231-.344-.345-.31-.3-.628-.6-.96-.872l-.009-.007c-.363-.3-.742-.578-1.128-.845-.061-.041-.121-.083-.183-.124a15.91,15.91,0,0,0-2.536-1.379l-.16-.07c-.442-.184-.893-.351-1.351-.5-.055-.017-.111-.032-.166-.048Q35,16.5,34.349,16.359c-.063-.014-.124-.03-.186-.042-.46-.093-.927-.162-1.4-.214-.1-.011-.2-.02-.3-.029C31.979,16.03,31.492,16,31,16s-.979.03-1.463.074c-.1.009-.2.018-.3.029-.47.052-.937.121-1.4.214-.062.012-.123.028-.186.042q-.654.139-1.291.333c-.055.016-.111.031-.166.048q-.689.218-1.351.5c-.053.022-.106.046-.159.069a15.72,15.72,0,0,0-2.537,1.379c-.062.041-.122.083-.183.124-.386.267-.765.544-1.128.845l-.009.007c-.332.275-.65.569-.96.872-.117.114-.231.229-.344.345-.2.211-.4.428-.591.65-.213.245-.416.5-.614.756-.113.148-.226.295-.335.448q-.233.324-.448.661c-.016.025-.034.048-.05.073s-.009.023-.015.034a15.864,15.864,0,0,0,0,17C17.476,40.512,17.479,40.524,17.485,40.535Zm24.136.554c-.264.309-.541.6-.828.886-.062.061-.123.122-.186.182s-.1.091-.152.138c-.236.218-.48.427-.729.627-.039.031-.077.064-.116.094-.13.1-.262.2-.395.3-.229.167-.462.328-.7.48q-.27.172-.547.333c-.226.131-.456.253-.689.37-.174.088-.35.174-.528.255-.075.034-.151.065-.226.1q-.285.123-.575.232l-.206.076A15.394,15.394,0,0,0,37.858,41H41.7Zm3.308-7.69c-.016.157-.047.309-.068.465-.04.3-.078.6-.137.9-.036.181-.088.356-.132.535-.063.261-.123.524-.2.779-.056.186-.127.366-.191.549-.084.239-.165.48-.262.713-.076.184-.165.363-.249.543-.1.222-.2.444-.318.659-.084.158-.178.309-.267.463H38.433a29.009,29.009,0,0,0,.788-6h5.728C44.94,33.132,44.942,33.268,44.929,33.4ZM43.1,25l.108.187c.078.14.156.28.23.423.087.168.167.34.247.512.035.075.07.15.1.226.07.156.139.313.2.473.074.183.139.37.205.557.022.062.044.124.065.187.058.174.117.348.169.525.059.2.108.409.158.616.011.043.022.085.032.128.044.192.09.382.126.576.045.24.078.483.111.726l0,.014c.028.208.057.415.075.626.006.074.006.15.011.224H39.221a29.009,29.009,0,0,0-.788-6ZM35.95,18.921q.289.11.575.232l.127.055c.076.033.151.068.226.1.135.063.269.127.4.194.208.1.412.215.614.33l.169.1c.153.09.3.18.453.276.238.152.471.313.7.48.133.1.265.194.395.3.039.03.077.063.116.094.249.2.493.409.729.627.05.047.1.091.152.138s.124.121.186.182c.287.283.564.577.828.886L41.7,23H37.858a15.394,15.394,0,0,0-2.114-4.155ZM32,18.212c1.4.558,2.757,2.245,3.742,4.788H32ZM32,25h4.393a26.806,26.806,0,0,1,.829,6H32Zm0,8h5.222a26.806,26.806,0,0,1-.829,6H32Zm0,8h3.742C34.757,43.543,33.4,45.23,32,45.788Zm-5.95,4.079c-.246-.093-.49-.188-.729-.294-.2-.091-.4-.19-.6-.29-.233-.117-.463-.239-.689-.37q-.277-.16-.547-.333c-.238-.152-.471-.313-.7-.48-.15-.109-.3-.218-.445-.333-.273-.217-.538-.446-.795-.684-.087-.08-.177-.156-.261-.238A14.156,14.156,0,0,1,20.3,41h3.846a15.394,15.394,0,0,0,2.114,4.155Zm3.95.709c-1.4-.558-2.757-2.245-3.742-4.788H30ZM30,39H25.607a26.806,26.806,0,0,1-.829-6H30Zm0-8H24.778a26.806,26.806,0,0,1,.829-6H30Zm0-12.788V23H26.258C27.243,20.457,28.6,18.77,30,18.212Zm-9.67,4.751q.453-.537.954-1.02c.084-.082.174-.158.261-.238.257-.238.522-.467.795-.684.145-.115.3-.224.445-.333.229-.167.462-.328.7-.48.148-.1.3-.186.453-.276l.169-.1c.2-.115.406-.226.614-.33.132-.067.266-.131.4-.194.094-.044.188-.088.283-.13.212-.093.428-.178.645-.26l.206-.076A15.394,15.394,0,0,0,24.142,23H20.3Zm-3.268,7.813c.018-.212.047-.42.075-.629.033-.247.067-.494.113-.737.039-.207.086-.41.134-.614.056-.237.115-.474.182-.706.059-.2.124-.4.191-.594.078-.228.159-.453.248-.675.077-.193.159-.383.245-.572.1-.215.2-.429.308-.639.095-.184.194-.365.3-.545l.04-.065h4.673a29.009,29.009,0,0,0-.788,6H17.051C17.056,30.926,17.056,30.85,17.062,30.776ZM22.779,33a29.009,29.009,0,0,0,.788,6H18.894a13.867,13.867,0,0,1-1.843-6Z"></path>
  <path d="M18,58.688h4a.977.977,0,0,0,.458-.125h1.458l7.606,3.352a1,1,0,0,0,.928-.063l13.5-8.324a2.023,2.023,0,0,0,.983-2.3,2.062,2.062,0,0,0-2.025-1.541,1.066,1.066,0,0,0-.149.01l-13.6,2.05-2.939-1.9a1,1,0,0,0-.543-.16H23a1,1,0,0,0-1-1H18a1,1,0,0,0-1,1v8A1,1,0,0,0,18,58.688Zm5-7h4.377l4.577,2.958a.711.711,0,0,1,.321.476.673.673,0,0,1-.135.53.809.809,0,0,1-1.064.17l-2.861-1.849-1.086,1.679L29.99,57.5a2.815,2.815,0,0,0,3.732-.627,2.653,2.653,0,0,0-.166-3.462l11.427-1.7-.05.1L31.849,59.873,24.53,56.647a1.014,1.014,0,0,0-.4-.084H23Zm-4-1h2v6H19Z"></path>
  <path d="M41.542,5.438H40.084L32.478,2.085a1,1,0,0,0-.928.063l-13.5,8.324a2.023,2.023,0,0,0-.983,2.3,2.063,2.063,0,0,0,2.025,1.542,1.067,1.067,0,0,0,.149-.011l13.6-2.05,2.939,1.9a1,1,0,0,0,.543.161H41a1,1,0,0,0,1,1h4a1,1,0,0,0,1-1v-8a1,1,0,0,0-1-1H42A.965.965,0,0,0,41.542,5.438ZM41,12.313H36.623L32.046,9.354a.711.711,0,0,1-.321-.476.673.673,0,0,1,.135-.53.811.811,0,0,1,1.064-.17l2.861,1.849,1.086-1.679L34.01,6.5a2.81,2.81,0,0,0-3.732.627,2.653,2.653,0,0,0,.166,3.462l-11.427,1.7.05-.1L32.151,4.127,39.47,7.353a1.015,1.015,0,0,0,.4.085H41Zm2-5h2v6H43Z"></path>
  <rect x="4" y="2" width="2" height="2"></rect>
  <rect x="4" y="6" width="2" height="2"></rect>
  <rect x="6" y="4" width="2" height="2"></rect>
  <rect x="2" y="4" width="2" height="2"></rect>
  <rect x="58" y="2" width="2" height="2"></rect>
  <rect x="58" y="6" width="2" height="2"></rect>
  <rect x="60" y="4" width="2" height="2"></rect>
  <rect x="56" y="4" width="2" height="2"></rect>
  <rect x="58" y="56" width="2" height="2"></rect>
  <rect x="58" y="60" width="2" height="2"></rect>
  <rect x="60" y="58" width="2" height="2"></rect>
  <rect x="56" y="58" width="2" height="2"></rect>
  <rect x="4" y="56" width="2" height="2"></rect>
  <rect x="4" y="60" width="2" height="2"></rect>
  <rect x="6" y="58" width="2" height="2"></rect>
  <rect x="2" y="58" width="2" height="2"></rect>
  <path d="M47.261,17.182A22,22,0,0,1,46.8,47.305l1.437,1.39a24,24,0,0,0,.5-32.861Z"></path>
  <path d="M15.2,16.7l-1.437-1.39a24,24,0,0,0,0,33.39l1.437-1.39a22,22,0,0,1,0-30.61Z"></path>
</svg>